<mxfile host="app.diagrams.net" agent="Mozilla/5.0 (Windows NT 10.0; Win64; x64) AppleWebKit/537.36 (KHTML, like Gecko) Chrome/128.0.0.0 Safari/537.36" version="24.7.14">
  <diagram name="Page-1" id="_m0mcT-LbZxMVgwSGdpl">
    <mxGraphModel dx="2876" dy="1114" grid="1" gridSize="10" guides="1" tooltips="1" connect="1" arrows="1" fold="1" page="1" pageScale="1" pageWidth="827" pageHeight="1169" math="0" shadow="0">
      <root>
        <mxCell id="0" />
        <mxCell id="1" parent="0" />
        <mxCell id="J0kD0AisD5n4wsnxr1aG-7" style="edgeStyle=orthogonalEdgeStyle;rounded=0;orthogonalLoop=1;jettySize=auto;html=1;exitX=0;exitY=0.5;exitDx=0;exitDy=0;entryX=0.5;entryY=0;entryDx=0;entryDy=0;" edge="1" parent="1" source="J0kD0AisD5n4wsnxr1aG-4" target="J0kD0AisD5n4wsnxr1aG-5">
          <mxGeometry relative="1" as="geometry" />
        </mxCell>
        <mxCell id="J0kD0AisD5n4wsnxr1aG-8" style="edgeStyle=orthogonalEdgeStyle;rounded=0;orthogonalLoop=1;jettySize=auto;html=1;exitX=1;exitY=0.5;exitDx=0;exitDy=0;entryX=0.5;entryY=0;entryDx=0;entryDy=0;" edge="1" parent="1" source="J0kD0AisD5n4wsnxr1aG-4" target="J0kD0AisD5n4wsnxr1aG-6">
          <mxGeometry relative="1" as="geometry" />
        </mxCell>
        <mxCell id="J0kD0AisD5n4wsnxr1aG-4" value="&lt;font style=&quot;font-size: 18px;&quot;&gt;inscription&lt;/font&gt;" style="ellipse;whiteSpace=wrap;html=1;fillColor=#dae8fc;strokeColor=#6c8ebf;" vertex="1" parent="1">
          <mxGeometry x="-698" y="260" width="120" height="80" as="geometry" />
        </mxCell>
        <mxCell id="J0kD0AisD5n4wsnxr1aG-5" value="&lt;font size=&quot;3&quot;&gt;Création d&#39;un identifiant&lt;/font&gt;" style="rounded=1;whiteSpace=wrap;html=1;" vertex="1" parent="1">
          <mxGeometry x="-780" y="410" width="120" height="60" as="geometry" />
        </mxCell>
        <mxCell id="J0kD0AisD5n4wsnxr1aG-6" value="&lt;font size=&quot;3&quot;&gt;Création d&#39;un mot de passe&lt;/font&gt;" style="rounded=1;whiteSpace=wrap;html=1;" vertex="1" parent="1">
          <mxGeometry x="-612" y="420" width="120" height="60" as="geometry" />
        </mxCell>
        <mxCell id="J0kD0AisD5n4wsnxr1aG-10" style="edgeStyle=orthogonalEdgeStyle;rounded=0;orthogonalLoop=1;jettySize=auto;html=1;exitX=0;exitY=0.5;exitDx=0;exitDy=0;entryX=0.5;entryY=0;entryDx=0;entryDy=0;" edge="1" parent="1" source="J0kD0AisD5n4wsnxr1aG-9" target="J0kD0AisD5n4wsnxr1aG-11">
          <mxGeometry relative="1" as="geometry">
            <mxPoint x="-318" y="420" as="targetPoint" />
          </mxGeometry>
        </mxCell>
        <mxCell id="J0kD0AisD5n4wsnxr1aG-13" style="edgeStyle=orthogonalEdgeStyle;rounded=0;orthogonalLoop=1;jettySize=auto;html=1;entryX=0.5;entryY=0;entryDx=0;entryDy=0;exitX=1;exitY=0.5;exitDx=0;exitDy=0;" edge="1" parent="1" source="J0kD0AisD5n4wsnxr1aG-9" target="J0kD0AisD5n4wsnxr1aG-12">
          <mxGeometry relative="1" as="geometry">
            <mxPoint x="-78" y="360" as="targetPoint" />
          </mxGeometry>
        </mxCell>
        <mxCell id="J0kD0AisD5n4wsnxr1aG-9" value="&lt;font style=&quot;font-size: 18px;&quot;&gt;Connexion&lt;/font&gt;" style="ellipse;whiteSpace=wrap;html=1;fillColor=#dae8fc;strokeColor=#6c8ebf;" vertex="1" parent="1">
          <mxGeometry x="-258" y="260" width="120" height="80" as="geometry" />
        </mxCell>
        <mxCell id="J0kD0AisD5n4wsnxr1aG-25" style="edgeStyle=orthogonalEdgeStyle;rounded=0;orthogonalLoop=1;jettySize=auto;html=1;exitX=0.5;exitY=1;exitDx=0;exitDy=0;entryX=0.5;entryY=0;entryDx=0;entryDy=0;" edge="1" parent="1" source="J0kD0AisD5n4wsnxr1aG-11" target="J0kD0AisD5n4wsnxr1aG-35">
          <mxGeometry relative="1" as="geometry">
            <mxPoint x="-283" y="610" as="targetPoint" />
          </mxGeometry>
        </mxCell>
        <mxCell id="J0kD0AisD5n4wsnxr1aG-11" value="&lt;font style=&quot;font-size: 18px;&quot;&gt;Authentification&lt;/font&gt;" style="rounded=1;whiteSpace=wrap;html=1;" vertex="1" parent="1">
          <mxGeometry x="-348" y="420" width="130" height="60" as="geometry" />
        </mxCell>
        <mxCell id="J0kD0AisD5n4wsnxr1aG-38" style="edgeStyle=orthogonalEdgeStyle;rounded=0;orthogonalLoop=1;jettySize=auto;html=1;exitX=1;exitY=0.5;exitDx=0;exitDy=0;entryX=0;entryY=0.5;entryDx=0;entryDy=0;" edge="1" parent="1" source="J0kD0AisD5n4wsnxr1aG-12" target="J0kD0AisD5n4wsnxr1aG-37">
          <mxGeometry relative="1" as="geometry" />
        </mxCell>
        <mxCell id="J0kD0AisD5n4wsnxr1aG-12" value="&lt;font style=&quot;font-size: 18px;&quot;&gt;Mot de passe oublié?&lt;/font&gt;" style="rounded=1;whiteSpace=wrap;html=1;" vertex="1" parent="1">
          <mxGeometry x="-168" y="420" width="120" height="60" as="geometry" />
        </mxCell>
        <mxCell id="J0kD0AisD5n4wsnxr1aG-14" value="&lt;font style=&quot;font-size: 18px;&quot;&gt;Page d&#39;accueil&lt;/font&gt;" style="shape=hexagon;perimeter=hexagonPerimeter2;whiteSpace=wrap;html=1;fixedSize=1;fillColor=#e1d5e7;strokeColor=#9673a6;" vertex="1" parent="1">
          <mxGeometry x="-492" y="60" width="136" height="80" as="geometry" />
        </mxCell>
        <mxCell id="J0kD0AisD5n4wsnxr1aG-15" value="" style="endArrow=classic;html=1;rounded=0;exitX=0.154;exitY=0.975;exitDx=0;exitDy=0;entryX=0.5;entryY=0;entryDx=0;entryDy=0;exitPerimeter=0;" edge="1" parent="1" source="J0kD0AisD5n4wsnxr1aG-14" target="J0kD0AisD5n4wsnxr1aG-4">
          <mxGeometry width="50" height="50" relative="1" as="geometry">
            <mxPoint x="-668" y="200" as="sourcePoint" />
            <mxPoint x="-618" y="150" as="targetPoint" />
          </mxGeometry>
        </mxCell>
        <mxCell id="J0kD0AisD5n4wsnxr1aG-16" value="" style="endArrow=classic;html=1;rounded=0;entryX=0.5;entryY=0;entryDx=0;entryDy=0;exitX=0.86;exitY=0.963;exitDx=0;exitDy=0;exitPerimeter=0;" edge="1" parent="1" source="J0kD0AisD5n4wsnxr1aG-14" target="J0kD0AisD5n4wsnxr1aG-9">
          <mxGeometry width="50" height="50" relative="1" as="geometry">
            <mxPoint x="-338" y="200" as="sourcePoint" />
            <mxPoint x="-288" y="150" as="targetPoint" />
          </mxGeometry>
        </mxCell>
        <mxCell id="J0kD0AisD5n4wsnxr1aG-23" style="edgeStyle=orthogonalEdgeStyle;rounded=0;orthogonalLoop=1;jettySize=auto;html=1;entryX=0;entryY=0.5;entryDx=0;entryDy=0;" edge="1" parent="1" source="J0kD0AisD5n4wsnxr1aG-19" target="J0kD0AisD5n4wsnxr1aG-20">
          <mxGeometry relative="1" as="geometry" />
        </mxCell>
        <mxCell id="J0kD0AisD5n4wsnxr1aG-19" value="&lt;font size=&quot;3&quot;&gt;Saisie des infos utilisateur&lt;/font&gt;" style="rounded=1;whiteSpace=wrap;html=1;" vertex="1" parent="1">
          <mxGeometry x="283.5" y="420" width="120" height="60" as="geometry" />
        </mxCell>
        <mxCell id="J0kD0AisD5n4wsnxr1aG-45" style="edgeStyle=orthogonalEdgeStyle;rounded=0;orthogonalLoop=1;jettySize=auto;html=1;exitX=0.5;exitY=0;exitDx=0;exitDy=0;entryX=1;entryY=0;entryDx=0;entryDy=0;" edge="1" parent="1" source="J0kD0AisD5n4wsnxr1aG-20" target="J0kD0AisD5n4wsnxr1aG-9">
          <mxGeometry relative="1" as="geometry">
            <mxPoint x="170" y="230" as="targetPoint" />
            <Array as="points">
              <mxPoint x="565" y="272" />
            </Array>
          </mxGeometry>
        </mxCell>
        <mxCell id="J0kD0AisD5n4wsnxr1aG-20" value="&lt;font style=&quot;font-size: 18px;&quot;&gt;Changement de mot de passe&lt;/font&gt;" style="rounded=1;whiteSpace=wrap;html=1;" vertex="1" parent="1">
          <mxGeometry x="500" y="415" width="130" height="70" as="geometry" />
        </mxCell>
        <mxCell id="J0kD0AisD5n4wsnxr1aG-27" value="" style="endArrow=none;html=1;rounded=0;entryX=0.5;entryY=1;entryDx=0;entryDy=0;" edge="1" parent="1" target="J0kD0AisD5n4wsnxr1aG-6">
          <mxGeometry width="50" height="50" relative="1" as="geometry">
            <mxPoint x="-640" y="600" as="sourcePoint" />
            <mxPoint x="-550" y="490" as="targetPoint" />
          </mxGeometry>
        </mxCell>
        <mxCell id="J0kD0AisD5n4wsnxr1aG-28" value="" style="endArrow=none;html=1;rounded=0;entryX=0.5;entryY=1;entryDx=0;entryDy=0;" edge="1" parent="1" target="J0kD0AisD5n4wsnxr1aG-5">
          <mxGeometry width="50" height="50" relative="1" as="geometry">
            <mxPoint x="-640" y="600" as="sourcePoint" />
            <mxPoint x="-698" y="490" as="targetPoint" />
          </mxGeometry>
        </mxCell>
        <mxCell id="J0kD0AisD5n4wsnxr1aG-32" value="" style="endArrow=none;html=1;rounded=0;" edge="1" parent="1">
          <mxGeometry width="50" height="50" relative="1" as="geometry">
            <mxPoint x="-640" y="600" as="sourcePoint" />
            <mxPoint x="-440" y="600" as="targetPoint" />
          </mxGeometry>
        </mxCell>
        <mxCell id="J0kD0AisD5n4wsnxr1aG-33" value="" style="endArrow=none;html=1;rounded=0;" edge="1" parent="1">
          <mxGeometry width="50" height="50" relative="1" as="geometry">
            <mxPoint x="-440" y="600" as="sourcePoint" />
            <mxPoint x="-440" y="450" as="targetPoint" />
          </mxGeometry>
        </mxCell>
        <mxCell id="J0kD0AisD5n4wsnxr1aG-34" value="" style="endArrow=classic;html=1;rounded=0;entryX=0;entryY=0.5;entryDx=0;entryDy=0;" edge="1" parent="1" target="J0kD0AisD5n4wsnxr1aG-11">
          <mxGeometry width="50" height="50" relative="1" as="geometry">
            <mxPoint x="-440" y="450" as="sourcePoint" />
            <mxPoint x="-360" y="430" as="targetPoint" />
          </mxGeometry>
        </mxCell>
        <mxCell id="J0kD0AisD5n4wsnxr1aG-35" value="Réservation" style="shape=hexagon;perimeter=hexagonPerimeter2;whiteSpace=wrap;html=1;fixedSize=1;fillColor=#e1d5e7;strokeColor=#9673a6;fontSize=18;" vertex="1" parent="1">
          <mxGeometry x="-343" y="610" width="120" height="80" as="geometry" />
        </mxCell>
        <mxCell id="J0kD0AisD5n4wsnxr1aG-42" style="edgeStyle=orthogonalEdgeStyle;rounded=0;orthogonalLoop=1;jettySize=auto;html=1;entryX=0;entryY=0.5;entryDx=0;entryDy=0;" edge="1" parent="1" source="J0kD0AisD5n4wsnxr1aG-37" target="J0kD0AisD5n4wsnxr1aG-19">
          <mxGeometry relative="1" as="geometry" />
        </mxCell>
        <mxCell id="J0kD0AisD5n4wsnxr1aG-37" value="&lt;font style=&quot;font-size: 18px;&quot;&gt;Reset password&lt;/font&gt;" style="shape=hexagon;perimeter=hexagonPerimeter2;whiteSpace=wrap;html=1;fixedSize=1;fillColor=#e1d5e7;strokeColor=#9673a6;" vertex="1" parent="1">
          <mxGeometry x="70" y="410" width="120" height="80" as="geometry" />
        </mxCell>
        <mxCell id="J0kD0AisD5n4wsnxr1aG-40" value="&lt;font style=&quot;font-size: 18px;&quot;&gt;Historique&lt;/font&gt;" style="rounded=1;whiteSpace=wrap;html=1;" vertex="1" parent="1">
          <mxGeometry x="-612" y="750" width="120" height="60" as="geometry" />
        </mxCell>
        <mxCell id="J0kD0AisD5n4wsnxr1aG-41" value="&lt;font style=&quot;font-size: 18px;&quot;&gt;Demande de réservation&lt;/font&gt;" style="rounded=1;whiteSpace=wrap;html=1;" vertex="1" parent="1">
          <mxGeometry x="-343" y="750" width="120" height="60" as="geometry" />
        </mxCell>
        <mxCell id="J0kD0AisD5n4wsnxr1aG-46" style="edgeStyle=orthogonalEdgeStyle;rounded=0;orthogonalLoop=1;jettySize=auto;html=1;exitX=0;exitY=0.5;exitDx=0;exitDy=0;entryX=0.5;entryY=0;entryDx=0;entryDy=0;" edge="1" parent="1" source="J0kD0AisD5n4wsnxr1aG-35" target="J0kD0AisD5n4wsnxr1aG-40">
          <mxGeometry relative="1" as="geometry" />
        </mxCell>
        <mxCell id="J0kD0AisD5n4wsnxr1aG-47" style="edgeStyle=orthogonalEdgeStyle;rounded=0;orthogonalLoop=1;jettySize=auto;html=1;exitX=0.5;exitY=1;exitDx=0;exitDy=0;entryX=0.5;entryY=0;entryDx=0;entryDy=0;" edge="1" parent="1" source="J0kD0AisD5n4wsnxr1aG-35" target="J0kD0AisD5n4wsnxr1aG-41">
          <mxGeometry relative="1" as="geometry" />
        </mxCell>
      </root>
    </mxGraphModel>
  </diagram>
</mxfile>
